name C:/MyDriveSym/Projects/mobilecap/Data\Session20210820_0001\mocap\ForceDataProcessed\DJAsym1_forces.mot
datacolumns 28
datarows 18
range 2.03200000 2.04050000
endheader 
time	R_ground_force_vx	R_ground_force_vy	R_ground_force_vz	R_ground_force_px	R_ground_force_py	R_ground_force_pz	R_ground_torque_x	R_ground_torque_y	R_ground_torque_z	L_ground_force_vx	L_ground_force_vy	L_ground_force_vz	L_ground_force_px	L_ground_force_py	L_ground_force_pz	L_ground_torque_x	L_ground_torque_y	L_ground_torque_z	3_ground_force_vx	3_ground_force_vy	3_ground_force_vz	3_ground_force_px	3_ground_force_py	3_ground_force_pz	3_ground_torque_x	3_ground_torque_y	3_ground_torque_z	
          2.03200000	        -76.85136800	       1102.70926400	        -69.20727600	         -0.15205300	          0.00600000	         -0.45445200	          0.00000000	         -2.36945400	          0.00000000	        -94.66031900	        941.07894500	        127.12965100	         -0.12968800	          0.00600000	         -0.75386600	          0.00000000	          3.31064800	          0.00000000	          0.00000000	          0.00000000	          0.00000000	          0.00000000	          0.00000000	          0.00000000	          0.00000000	          0.00000000	          0.00000000	
          2.03250000	        -77.37321100	       1101.81491700	        -69.01921800	         -0.15192200	          0.00600000	         -0.45443800	          0.00000000	         -2.37447500	          0.00000000	        -95.22411600	        940.25776400	        126.78707300	         -0.12944900	          0.00600000	         -0.75391800	          0.00000000	          3.31156300	          0.00000000	          0.00000000	          0.00000000	          0.00000000	          0.00000000	          0.00000000	          0.00000000	          0.00000000	          0.00000000	          0.00000000	
          2.03300000	        -77.89643000	       1100.89471700	        -68.82595900	         -0.15179200	          0.00600000	         -0.45442500	          0.00000000	         -2.37926900	          0.00000000	        -95.77505400	        939.40277900	        126.42777900	         -0.12921000	          0.00600000	         -0.75396800	          0.00000000	          3.31304500	          0.00000000	          0.00000000	          0.00000000	          0.00000000	          0.00000000	          0.00000000	          0.00000000	          0.00000000	          0.00000000	          0.00000000	
          2.03350000	        -78.42079200	       1099.94777900	        -68.62755400	         -0.15166200	          0.00600000	         -0.45441100	          0.00000000	         -2.38381600	          0.00000000	        -96.31255600	        938.51309400	        126.05157500	         -0.12897200	          0.00600000	         -0.75401700	          0.00000000	          3.31507400	          0.00000000	          0.00000000	          0.00000000	          0.00000000	          0.00000000	          0.00000000	          0.00000000	          0.00000000	          0.00000000	          0.00000000	
          2.03400000	        -78.94604000	       1098.97320500	        -68.42406300	         -0.15153200	          0.00600000	         -0.45439700	          0.00000000	         -2.38809500	          0.00000000	        -96.83605300	        937.58777000	        125.65829600	         -0.12873500	          0.00600000	         -0.75406500	          0.00000000	          3.31762400	          0.00000000	          0.00000000	          0.00000000	          0.00000000	          0.00000000	          0.00000000	          0.00000000	          0.00000000	          0.00000000	          0.00000000	
          2.03450000	        -79.47189200	       1097.97009000	        -68.21555500	         -0.15140100	          0.00600000	         -0.45438400	          0.00000000	         -2.39208500	          0.00000000	        -97.34497600	        936.62584700	        125.24780600	         -0.12849900	          0.00600000	         -0.75411200	          0.00000000	          3.32067100	          0.00000000	          0.00000000	          0.00000000	          0.00000000	          0.00000000	          0.00000000	          0.00000000	          0.00000000	          0.00000000	          0.00000000	
          2.03500000	        -79.99804600	       1096.93750700	        -68.00209800	         -0.15127100	          0.00600000	         -0.45437000	          0.00000000	         -2.39576500	          0.00000000	        -97.83875300	        935.62632900	        124.81999800	         -0.12826300	          0.00600000	         -0.75415700	          0.00000000	          3.32419400	          0.00000000	          0.00000000	          0.00000000	          0.00000000	          0.00000000	          0.00000000	          0.00000000	          0.00000000	          0.00000000	          0.00000000	
          2.03550000	        -80.52418100	       1095.87451900	        -67.78374600	         -0.15114000	          0.00600000	         -0.45435700	          0.00000000	         -2.39911200	          0.00000000	        -98.31681500	        934.58816600	        124.37478300	         -0.12802800	          0.00600000	         -0.75420100	          0.00000000	          3.32817600	          0.00000000	          0.00000000	          0.00000000	          0.00000000	          0.00000000	          0.00000000	          0.00000000	          0.00000000	          0.00000000	          0.00000000	
          2.03600000	        -81.04995100	       1094.78018100	        -67.56053700	         -0.15101000	          0.00600000	         -0.45434400	          0.00000000	         -2.40210300	          0.00000000	        -98.77860200	        933.51022200	        123.91208900	         -0.12779300	          0.00600000	         -0.75424400	          0.00000000	          3.33259900	          0.00000000	          0.00000000	          0.00000000	          0.00000000	          0.00000000	          0.00000000	          0.00000000	          0.00000000	          0.00000000	          0.00000000	
          2.03650000	        -81.57498600	       1093.65353800	        -67.33249400	         -0.15087900	          0.00600000	         -0.45433100	          0.00000000	         -2.40471700	          0.00000000	        -99.22356300	        932.39125200	        123.43187300	         -0.12756000	          0.00600000	         -0.75428600	          0.00000000	          3.33744600	          0.00000000	          0.00000000	          0.00000000	          0.00000000	          0.00000000	          0.00000000	          0.00000000	          0.00000000	          0.00000000	          0.00000000	
          2.03700000	        -82.09889400	       1092.49362000	        -67.09963500	         -0.15074800	          0.00600000	         -0.45431800	          0.00000000	         -2.40693200	          0.00000000	        -99.65116100	        931.22988600	        122.93412000	         -0.12732700	          0.00600000	         -0.75432600	          0.00000000	          3.34269100	          0.00000000	          0.00000000	          0.00000000	          0.00000000	          0.00000000	          0.00000000	          0.00000000	          0.00000000	          0.00000000	          0.00000000	
          2.03750000	        -82.62127200	       1091.29944500	        -66.86197600	         -0.15061600	          0.00600000	         -0.45430500	          0.00000000	         -2.40872800	          0.00000000	       -100.06087800	        930.02465300	        122.41884600	         -0.12709500	          0.00600000	         -0.75436500	          0.00000000	          3.34829300	          0.00000000	          0.00000000	          0.00000000	          0.00000000	          0.00000000	          0.00000000	          0.00000000	          0.00000000	          0.00000000	          0.00000000	
          2.03800000	        -83.14170300	       1090.07002200	        -66.61953600	         -0.15048500	          0.00600000	         -0.45429200	          0.00000000	         -2.41009100	          0.00000000	       -100.45220900	        928.77402000	        121.88608900	         -0.12686400	          0.00600000	         -0.75440300	          0.00000000	          3.35419500	          0.00000000	          0.00000000	          0.00000000	          0.00000000	          0.00000000	          0.00000000	          0.00000000	          0.00000000	          0.00000000	          0.00000000	
          2.03850000	        -83.65976000	       1088.80436400	        -66.37233100	         -0.15035300	          0.00600000	         -0.45428000	          0.00000000	         -2.41100900	          0.00000000	       -100.82465400	        927.47643900	        121.33591500	         -0.12663400	          0.00600000	         -0.75443900	          0.00000000	          3.36032900	          0.00000000	          0.00000000	          0.00000000	          0.00000000	          0.00000000	          0.00000000	          0.00000000	          0.00000000	          0.00000000	          0.00000000	
          2.03900000	        -84.17501900	       1087.50147500	        -66.12037900	         -0.15022100	          0.00600000	         -0.45426700	          0.00000000	         -2.41147100	          0.00000000	       -101.17771200	        926.13034800	        120.76841000	         -0.12640400	          0.00600000	         -0.75447500	          0.00000000	          3.36662600	          0.00000000	          0.00000000	          0.00000000	          0.00000000	          0.00000000	          0.00000000	          0.00000000	          0.00000000	          0.00000000	          0.00000000	
          2.03950000	        -84.68706100	       1086.16034200	        -65.86369400	         -0.15008800	          0.00600000	         -0.45425400	          0.00000000	         -2.41146700	          0.00000000	       -101.51088100	        924.73416200	        120.18368000	         -0.12617500	          0.00600000	         -0.75450900	          0.00000000	          3.37301700	          0.00000000	          0.00000000	          0.00000000	          0.00000000	          0.00000000	          0.00000000	          0.00000000	          0.00000000	          0.00000000	          0.00000000	
          2.04000000	        -85.19548200	       1084.77992600	        -65.60229400	         -0.14995500	          0.00600000	         -0.45424100	          0.00000000	         -2.41098200	          0.00000000	       -101.82364800	        923.28626300	        119.58184600	         -0.12594700	          0.00600000	         -0.75454200	          0.00000000	          3.37944000	          0.00000000	          0.00000000	          0.00000000	          0.00000000	          0.00000000	          0.00000000	          0.00000000	          0.00000000	          0.00000000	          0.00000000	
          2.04050000	        -85.69988800	       1083.35916900	        -65.33620000	         -0.14982100	          0.00600000	         -0.45422800	          0.00000000	         -2.41000000	          0.00000000	       -102.11549100	        921.78501800	        118.96305800	         -0.12571900	          0.00600000	         -0.75457500	          0.00000000	          3.38583900	          0.00000000	          0.00000000	          0.00000000	          0.00000000	          0.00000000	          0.00000000	          0.00000000	          0.00000000	          0.00000000	          0.00000000	
